<svg width="744" height="360" viewBox="0 0 744 360" fill="none" xmlns="http://www.w3.org/2000/svg">
<path d="M19.601 149.481L359.617 6.57152C369.61 2.37148 380.879 2.40689 390.846 6.66964L724.584 149.415C736.361 154.452 744 166.027 744 178.836V328C744 345.673 729.673 360 712 360H32C14.3269 360 0 345.673 0 328V178.981C0 166.099 7.72493 154.472 19.601 149.481Z" fill="black" style="fill:black;fill-opacity:1;"/>
<path d="M77.0801 310.5H52.8418V207.273H77.0801V310.5ZM200.675 310.5H180.002L138.226 249.904H137.442V310.5H113.204V207.273H134.234L175.582 267.798H176.508V207.273H200.675V310.5ZM236.87 207.273H261.109V248.978H302.599V207.273H326.908V310.5H302.599V268.725H261.109V310.5H236.87V207.273ZM358.256 310.5L393.187 207.273H425.339L460.341 310.5H434.25L409.726 232.795H408.871L384.347 310.5H358.256ZM437.101 269.794V288.4H381.139V269.794H437.101ZM578.733 207.273V273.929C578.733 281.485 576.927 288.115 573.315 293.818C569.703 299.521 564.594 303.941 557.988 307.078C551.429 310.215 543.825 311.783 535.175 311.783C526.573 311.783 518.992 310.215 512.434 307.078C505.875 303.941 500.79 299.521 497.178 293.818C493.566 288.115 491.76 281.485 491.76 273.929V207.273H515.998V271.861C515.998 275.473 516.806 278.705 518.422 281.557C520.086 284.408 522.367 286.642 525.266 288.258C528.165 289.874 531.468 290.682 535.175 290.682C539.025 290.682 542.399 289.874 545.298 288.258C548.197 286.642 550.431 284.408 551.999 281.557C553.615 278.705 554.423 275.473 554.423 271.861V207.273H578.733ZM670.533 237.928C670.295 235.409 669.535 233.246 668.252 231.44C666.969 229.634 665.163 228.28 662.834 227.377C660.505 226.426 657.677 225.951 654.35 225.951C651.166 225.951 648.457 226.379 646.223 227.234C643.99 228.09 642.303 229.278 641.162 230.799C640.021 232.32 639.451 234.078 639.451 236.074C639.356 239.068 640.615 241.468 643.229 243.274C645.843 245.033 649.693 246.506 654.778 247.694L663.761 249.69C674.121 251.972 681.939 255.655 687.215 260.74C692.49 265.778 695.175 272.384 695.27 280.559C695.27 287.022 693.631 292.606 690.351 297.312C687.072 301.969 682.391 305.557 676.307 308.076C670.224 310.548 662.929 311.783 654.422 311.783C645.724 311.783 638.192 310.476 631.823 307.862C625.455 305.248 620.536 301.327 617.066 296.1C613.597 290.824 611.767 284.289 611.577 276.495H634.96C635.197 279.774 636.124 282.555 637.74 284.836C639.356 287.07 641.566 288.757 644.37 289.897C647.174 291.038 650.406 291.608 654.065 291.608C657.487 291.608 660.434 291.133 662.905 290.183C665.376 289.232 667.254 287.925 668.537 286.262C669.868 284.598 670.533 282.674 670.533 280.487C670.533 278.539 669.939 276.852 668.751 275.426C667.563 274 665.757 272.764 663.333 271.719C660.909 270.673 657.725 269.699 653.78 268.796L642.944 266.229C633.677 264.138 626.595 260.764 621.7 256.106C616.805 251.449 614.357 245.318 614.357 237.714C614.357 231.44 616.068 225.904 619.49 221.104C622.912 216.303 627.665 212.573 633.748 209.911C639.831 207.202 646.746 205.848 654.493 205.848C662.335 205.848 669.202 207.178 675.096 209.84C681.036 212.501 685.623 216.256 688.854 221.104C692.134 225.951 693.797 231.559 693.845 237.928H670.533Z" fill="white" style="fill:white;fill-opacity:1;"/>
</svg>
