<svg width="956" height="352" viewBox="0 0 956 352" fill="none" xmlns="http://www.w3.org/2000/svg">
<g clip-path="url(#clip0_75_3)">
<path d="M486.153 0.261561C487.765 0.0860177 489.258 0.465602 490.72 1.12051C526.263 17.0229 561.918 32.9418 597.423 48.9019L818.455 148.291C818.523 135.129 819.04 118.8 818.118 105.517C817.923 102.773 813.453 101.16 810.588 99.267C809.605 96.9077 809.763 97.9159 810.385 95.213C813.003 93.6271 859.09 93.9339 864.153 94.8829L864.865 96.1177C863.455 100.419 856.038 103.858 856.158 109.267C856.255 113.301 856.533 117.241 856.563 121.3L856.638 165.614C886.473 180.116 917.313 192.461 948.91 202.557C949.96 208.954 955.833 236.051 953.688 239.737C947.193 237.484 942.475 213.911 914.268 205.311C904.3 202.273 891.37 203.831 882.243 208.726C876.085 212.025 871.945 217.062 869.995 223.773C859.375 260.264 940.743 254.922 959.425 290.417C964.338 299.744 964.518 310.825 961.278 320.732C957.813 331.356 950.02 339.526 940.128 344.506C913.165 358.075 879.093 349.938 852.138 340.866C851.013 334.641 845.073 307.267 846.648 303.061C850.18 303.888 856.938 317.208 860.613 321.87C864.07 326.3 868.053 330.299 872.463 333.781C884.673 343.187 900.175 347.248 915.43 345.037C930.558 342.89 944.523 330.412 940.488 314.688C933.153 286.143 885.153 287.952 864.91 271.171C856.51 264.204 850.645 258.479 848.913 247.188C845.058 215.122 867.933 202.624 894.745 198.78L515.673 31.1106C506.343 26.9133 496.968 22.8091 487.555 18.7993L348.842 77.9595L348.927 231.211C371.403 205.242 400.33 188.667 435.534 206.881C459.726 219.399 458.558 247.648 458.492 271.582L458.387 309.104C458.373 317.268 458.304 324.467 459.983 332.578C461.515 339.997 477.265 344.009 478.293 347.446C474.243 349.076 410.81 348.499 408.956 347.314C409.752 341.751 426.958 344.302 427.971 328.085C429.593 302.082 428.877 274.681 428.533 248.754C428.239 226.533 409.566 212.77 388.271 215.097C371.149 216.968 359.749 225.813 348.933 238.829L348.84 293.572C348.815 308.093 344.472 339.553 362.75 343.093C365.34 343.595 368.996 344.524 369.226 347.339C366.192 348.96 300.545 348.777 299.242 347.194C300.717 341.137 311.658 343.594 315.897 335.892C318.462 331.23 318.798 325.708 318.934 320.29C319.311 305.268 319.151 289.938 319.155 274.906L319.147 190.652C319.137 163.324 320.018 135.135 318.028 108.049C316.386 100.901 310.482 97.8829 304.101 99.228C283.149 103.645 262.8 114.001 242.92 122.433L163.18 156.258C147.81 162.786 131.347 170.159 115.839 176.092C110.436 175.01 104.141 174.398 98.6118 173.723C100.71 171.661 102.786 169.475 105.489 168.235C118.848 162.107 132.374 156.241 145.807 150.273L229.027 113.49L486.153 0.261561Z" fill="black" style="fill:black;fill-opacity:1;"/>
<path d="M557.058 200.137C576.43 197.579 601.105 201.233 614.275 216.908C626.32 231.253 625.12 250.778 625.053 268.321L624.873 307.31C624.82 318.149 623.688 347.62 642.798 339.286C647.23 337.354 651.813 330.739 655.96 332.17C655.975 333.08 656.178 333.44 655.713 334.215C641.868 357.284 603.73 359.265 595.915 329.11C571.038 349.087 532.083 361.752 503.965 340.866L503.658 340.572C495.873 333.15 491.778 324.563 491.628 313.671C491.463 302.847 495.708 292.423 503.38 284.79C525.333 262.866 567.145 264.46 595.525 264.459C595.578 261.915 595.615 259.371 595.638 256.826C595.795 235.59 591.685 206.832 563.56 207.472C540.903 207.987 522.28 229.232 507.595 244.531L506.05 244.491C504.7 241.075 514.795 217.522 516.558 213.083C529.158 206.341 542.883 201.954 557.058 200.137Z" fill="black" style="fill:black;fill-opacity:1;"/>
<path d="M579.805 269.962C584.762 269.919 590.582 270.183 595.607 270.299L595.54 320.898C580.21 335.578 562.052 342.426 541.157 336.567C519.827 328.661 514.937 303.186 529.472 286.408C541.112 272.977 562.915 270.888 579.805 269.962Z" fill="white" style="fill:white;fill-opacity:1;"/>
<path d="M154.445 199.121C156.568 199.137 155.757 198.744 157.102 199.98C158.221 204.524 157.695 225.055 157.632 231.124C165.536 222.125 172.771 214.184 183.325 208.075C197.88 199.644 215.203 197.39 231.429 201.818C266.446 211.251 266.63 239.616 266.533 268.844L266.397 307.806C266.371 317.213 265.275 331.346 272.281 338.848C274.767 341.511 284.841 343.924 286.584 346.989C284.454 348.926 221.613 349.04 216.939 347.165C218.32 344.386 233.659 340.252 235.071 333.116C238.654 315.013 236.901 295.88 237.21 277.325C237.449 262.948 238.12 246.393 232.788 232.851C217.392 205.561 180.809 212.446 162.672 232.977C160.973 234.899 159.296 236.821 157.636 238.782L157.603 293.654C157.584 302.895 157.73 317.678 158.204 326.689C159.143 344.521 177.576 342.078 177.964 347.367C174.74 348.838 110.394 348.73 107.601 347.326L107.839 345.749C111.277 342.806 115.734 343.443 119.595 340.825C126.218 336.336 127.55 328.548 127.608 320.984C127.767 291.858 128.215 262.646 127.44 233.533C126.996 216.871 111.063 219.59 107.96 215.107C111.153 211.218 146.108 202.14 154.445 199.121Z" fill="black" style="fill:black;fill-opacity:1;"/>
<path d="M783.032 315.233C783.257 300.445 785.365 230.714 780.34 222.367C776.335 215.72 769.727 218.283 765.76 213.918C767.47 211.406 807.085 199.819 812.432 198.128C812.882 226.252 812.485 255.489 812.492 283.705C812.522 294.506 810.4 326.379 815.972 334.694C818.32 338.196 827.215 340.563 828.94 342.377L828.407 343.883C825.677 344.963 822.295 345.224 819.355 345.554C807.107 346.921 795.287 349.247 783.257 351.893C783.077 342.29 783.16 332.413 783.115 322.785C765.16 343.385 744.812 355.486 716.53 350.438C677.942 343.553 675.482 315.849 675.557 283.626L675.805 247.204C675.857 239.563 676.57 231.115 673.615 224.059C669.85 215.068 661.742 218.068 658.585 213.752C660.242 211.287 695.492 201.197 701.875 199.095L704.035 199.221C706.9 202.69 703.825 291.213 705.595 304.507C711.37 347.894 760.907 342.919 783.032 315.233Z" fill="black" style="fill:black;fill-opacity:1;"/>
<path d="M9.36337 111.425C18.2644 111.255 90.7879 110.768 94.0174 111.97L94.5828 113.61C93.0746 115.406 85.3669 117.858 82.7074 119.021C72.4466 123.327 67.4569 134.415 67.2754 145.208C66.4159 200.351 66.5284 256.327 67.1254 311.406C67.3451 331.623 73.3834 338.143 90.6034 344.411C92.4131 345.07 93.0514 345.454 93.6221 347.124C91.6676 348.742 91.1779 348.226 88.1876 348.323C79.3264 348.305 10.1164 349.104 7.32185 347.033L7.45687 345.682C12.2201 341.108 28.2311 342.905 31.7951 326.644C35.7394 308.645 34.6354 291.879 34.6444 273.617L34.6436 212.578C34.6346 191.83 35.0044 171.027 34.2499 150.297C33.3934 126.766 20.1236 122.178 -0.0356445 118.082C3.10011 115.324 5.84137 113.676 9.36337 111.425Z" fill="black" style="fill:black;fill-opacity:1;"/>
</g>
<defs>
<clipPath id="clip0_75_3">
<rect width="956" height="352" fill="white" style="fill:white;fill-opacity:1;"/>
</clipPath>
</defs>
</svg>
